<svg xmlns="http://www.w3.org/2000/svg" width="16" height="17" viewBox="0 0 16 17"><path fill="#FFF" fill-rule="evenodd" d="M14.186 3.033A8.496 8.496 0 0 1 16 8.179c-.267-.06-2.914-.625-5.561-.269-.06-.148-.119-.297-.179-.416a44.312 44.312 0 0 0-.535-1.19c2.975-1.278 4.313-3.033 4.461-3.271M8 0c2.023 0 3.896.773 5.294 2.081-.148.209-1.338 1.874-4.193 2.974C7.792 2.587 6.335.535 6.127.238A7.681 7.681 0 0 1 8 0M4.61.773a58.594 58.594 0 0 1 2.974 4.759C3.837 6.542.536 6.542.179 6.542A8.245 8.245 0 0 1 4.61.773M0 8.238V8c.357 0 4.224.059 8.208-1.16.239.476.447.922.655 1.398-.119.029-.208.06-.327.089-4.134 1.368-6.305 5.115-6.513 5.442C.804 12.282 0 10.349 0 8.238m8 8.268c-1.843 0-3.539-.655-4.907-1.755.149-.298 1.755-3.539 6.276-5.146.029 0 .029 0 .059-.029a34.163 34.163 0 0 1 1.695 6.245A7.374 7.374 0 0 1 8 16.506m4.461-1.428c-.088-.506-.505-2.915-1.546-5.889 2.499-.416 4.699.268 4.966.357a8.116 8.116 0 0 1-3.42 5.532" opacity=".6"/></svg>