<svg xmlns="http://www.w3.org/2000/svg" width="16" height="16" viewBox="0 0 16 16"><path fill="#FFF" fill-rule="evenodd" d="M16 8.001c0 1.743-.509 3.312-1.526 4.704-1.018 1.393-2.332 2.357-3.944 2.891-.187.035-.324.01-.411-.073a.413.413 0 0 1-.13-.312v-2.198c0-.674-.18-1.167-.542-1.48a7.216 7.216 0 0 0 1.069-.187c.316-.083.642-.219.979-.407.337-.187.618-.417.844-.692.226-.274.41-.639.553-1.095.141-.455.212-.977.212-1.568 0-.84-.274-1.555-.822-2.146.257-.631.229-1.34-.084-2.124-.194-.063-.475-.025-.844.114a5.597 5.597 0 0 0-.958.459l-.396.25a7.413 7.413 0 0 0-2-.271c-.688 0-1.354.091-2 .271a10.27 10.27 0 0 0-.443-.282 6.408 6.408 0 0 0-.87-.401c-.396-.156-.694-.203-.896-.14-.306.785-.33 1.493-.072 2.124-.549.591-.823 1.306-.823 2.146 0 .591.071 1.112.213 1.563.142.452.325.817.547 1.094.222.279.502.511.839.698.337.188.663.324.979.407.316.083.672.145 1.068.187-.278.25-.448.608-.511 1.072-.145.07-.302.122-.469.157a2.923 2.923 0 0 1-.593.051c-.23 0-.457-.074-.682-.223a1.851 1.851 0 0 1-.579-.651 1.653 1.653 0 0 0-.505-.542c-.205-.139-.376-.222-.515-.25l-.209-.032c-.146 0-.247.016-.302.047-.055.031-.073.071-.052.12a.576.576 0 0 0 .094.147c.042.048.087.09.135.124l.073.052c.153.07.304.202.453.396.15.194.259.372.328.531l.104.24c.091.264.244.477.459.64.216.163.448.268.698.314.25.045.491.069.724.072.233.003.426-.009.578-.037l.24-.042a113.767 113.767 0 0 0 .01 1.49.41.41 0 0 1-.135.313c-.09.083-.229.108-.417.073-1.611-.535-2.925-1.498-3.943-2.891C.509 11.312 0 9.743 0 8a7.83 7.83 0 0 1 1.073-4.016 7.975 7.975 0 0 1 2.911-2.911A7.822 7.822 0 0 1 8 0a7.842 7.842 0 0 1 4.016 1.073 7.963 7.963 0 0 1 2.912 2.911A7.83 7.83 0 0 1 16 8v.001z" opacity=".6"/></svg>