<svg xmlns="http://www.w3.org/2000/svg" width="16" height="16" viewBox="0 0 16 16">
  <path fill="#FFFFFF" fill-rule="evenodd" d="M796,3088.001 C796,3089.744 795.491,3091.313 794.474,3092.705 C793.456,3094.098 792.142,3095.062 790.53,3095.596 C790.343,3095.631 790.206,3095.606 790.119,3095.523 C790.032,3095.44 789.989,3095.336 789.989,3095.211 L789.989,3093.013 C789.989,3092.339 789.809,3091.846 789.447,3091.533 C789.844,3091.491 790.2,3091.429 790.516,3091.346 C790.832,3091.263 791.158,3091.127 791.495,3090.939 C791.832,3090.752 792.113,3090.522 792.339,3090.247 C792.565,3089.973 792.749,3089.608 792.892,3089.152 C793.033,3088.697 793.104,3088.175 793.104,3087.584 C793.104,3086.744 792.83,3086.029 792.282,3085.438 C792.539,3084.807 792.511,3084.098 792.198,3083.314 C792.004,3083.251 791.723,3083.289 791.354,3083.428 C790.986,3083.567 790.667,3083.72 790.396,3083.887 L790,3084.137 C789.354,3083.957 788.688,3083.866 788,3083.866 C787.312,3083.866 786.646,3083.957 786,3084.137 C785.889,3084.061 785.741,3083.967 785.557,3083.855 C785.374,3083.745 785.083,3083.611 784.687,3083.454 C784.291,3083.298 783.993,3083.251 783.791,3083.314 C783.485,3084.099 783.461,3084.807 783.719,3085.438 C783.17,3086.029 782.896,3086.744 782.896,3087.584 C782.896,3088.175 782.967,3088.696 783.109,3089.147 C783.251,3089.599 783.434,3089.964 783.656,3090.241 C783.878,3090.52 784.158,3090.752 784.495,3090.939 C784.832,3091.127 785.158,3091.263 785.474,3091.346 C785.79,3091.429 786.146,3091.491 786.542,3091.533 C786.264,3091.783 786.094,3092.141 786.031,3092.605 C785.886,3092.675 785.729,3092.727 785.562,3092.762 C785.396,3092.797 785.198,3092.813 784.969,3092.813 C784.739,3092.813 784.512,3092.739 784.287,3092.59 C784.061,3092.44 783.869,3092.224 783.708,3091.939 C783.577,3091.716 783.408,3091.535 783.203,3091.397 C782.998,3091.258 782.827,3091.175 782.688,3091.147 L782.479,3091.115 C782.333,3091.115 782.232,3091.131 782.177,3091.162 C782.122,3091.193 782.104,3091.233 782.125,3091.282 C782.146,3091.331 782.177,3091.38 782.219,3091.429 C782.261,3091.477 782.306,3091.519 782.354,3091.553 L782.427,3091.605 C782.58,3091.675 782.731,3091.807 782.88,3092.001 C783.03,3092.195 783.139,3092.373 783.208,3092.532 L783.312,3092.772 C783.403,3093.036 783.556,3093.249 783.771,3093.412 C783.987,3093.575 784.219,3093.68 784.469,3093.726 C784.719,3093.771 784.96,3093.795 785.193,3093.798 C785.426,3093.801 785.619,3093.789 785.771,3093.761 L786.011,3093.719 C786.011,3093.983 786.013,3094.292 786.016,3094.647 C786.02,3095.001 786.021,3095.188 786.021,3095.209 C786.021,3095.334 785.976,3095.438 785.886,3095.522 C785.796,3095.605 785.657,3095.63 785.469,3095.595 C783.858,3095.06 782.544,3094.097 781.526,3092.704 C780.509,3091.312 780,3089.743 780,3088 C780,3086.548 780.358,3085.21 781.073,3083.984 C781.788,3082.759 782.759,3081.789 783.984,3081.073 C785.21,3080.357 786.549,3080 788,3080 C789.451,3080.001 790.79,3080.358 792.016,3081.073 C793.242,3081.788 794.212,3082.758 794.928,3083.984 C795.643,3085.21 796,3086.549 796,3088 L796,3088.001 Z" transform="translate(-780 -3080)" opacity=".6"/>
</svg>
