<svg xmlns="http://www.w3.org/2000/svg" width="16" height="17" viewBox="0 0 16 17"><path fill="#FFF" fill-rule="evenodd" d="M13.639 13.22h-2.375L11.208 9s.056-1.125-1.167-1.111a1.374 1.374 0 0 0-1.397 1.11v4.22H6.252V6.118h2.293v.98s.094-.32.622-.695c.528-.375 1.403-.458 1.778-.444.376.013.888-.052 1.75.542.92.633.944 2.29.944 2.29v4.43zM3.553 5.256a1.344 1.344 0 1 1 0-2.689 1.344 1.344 0 0 1 0 2.689zm1.184 7.964H2.369V6.117h2.369v7.103h-.001zM14.667 0H1.334C.597 0 0 .597 0 1.334v13.365c0 .735.597 1.333 1.334 1.333h13.333c.736 0 1.333-.598 1.333-1.333V1.334C16 .597 15.403 0 14.667 0z" opacity=".6"/></svg>