<svg xmlns="http://www.w3.org/2000/svg" width="16" height="13" viewBox="0 0 16 13">
  <path fill="#FFFFFF" fill-rule="evenodd" d="M918.883,3082.00075 C920.154,3081.97875 920.831,3082.44175 921.478,3083.03075 C922.026,3082.98375 922.738,3082.67675 923.159,3082.46375 C923.295,3082.38975 923.431,3082.31475 923.568,3082.24075 C923.327,3082.88875 923.002,3083.39675 922.502,3083.78175 C922.392,3083.86675 922.281,3083.98175 922.142,3084.03675 L922.142,3084.04475 C922.854,3084.03775 923.442,3083.71575 924,3083.54175 L924,3083.54975 C923.706,3084.01575 923.31,3084.48875 922.887,3084.82775 L922.374,3085.23475 C922.383,3085.98875 922.363,3086.70875 922.222,3087.34175 C921.403,3091.02675 919.23,3093.52775 915.792,3094.60075 C914.557,3094.98475 912.562,3095.14275 911.147,3094.79175 C910.445,3094.61675 909.812,3094.42075 909.217,3094.16075 C908.887,3094.01675 908.581,3093.85975 908.288,3093.68175 C908.192,3093.62275 908.096,3093.56375 908,3093.50675 C908.319,3093.51575 908.692,3093.60375 909.049,3093.54575 C909.372,3093.49375 909.688,3093.50775 909.986,3093.44175 C910.729,3093.27875 911.388,3093.06375 911.956,3092.73075 C912.231,3092.57075 912.649,3092.38175 912.845,3092.14875 C912.476,3092.15475 912.142,3092.06975 911.868,3091.97275 C910.806,3091.59775 910.188,3090.90875 909.786,3089.87275 C910.108,3089.90775 911.034,3089.99175 911.251,3089.80975 C910.846,3089.78675 910.457,3089.55275 910.178,3089.37875 C909.324,3088.84375 908.627,3087.94675 908.633,3086.56775 C908.745,3086.62075 908.857,3086.67375 908.969,3086.72775 C909.183,3086.81775 909.402,3086.86675 909.657,3086.91875 C909.766,3086.94075 909.982,3087.00475 910.106,3086.95875 L910.09,3086.95875 C909.925,3086.76675 909.655,3086.63875 909.489,3086.43275 C908.941,3085.75075 908.428,3084.70275 908.753,3083.45375 C908.835,3083.13775 908.966,3082.85775 909.105,3082.59975 L909.121,3082.60775 C909.185,3082.74175 909.327,3082.83875 909.417,3082.95075 C909.697,3083.29775 910.043,3083.60975 910.394,3083.88475 C911.593,3084.82275 912.673,3085.39875 914.406,3085.82475 C914.846,3085.93375 915.355,3086.01675 915.88,3086.01675 C915.732,3085.58675 915.779,3084.89175 915.896,3084.47575 C916.188,3083.42975 916.822,3082.67675 917.754,3082.27175 C917.976,3082.17575 918.223,3082.10475 918.483,3082.04875 C918.615,3082.03275 918.749,3082.01675 918.883,3082.00075" transform="translate(-908 -3082)" opacity=".6"/>
</svg>
