<svg xmlns="http://www.w3.org/2000/svg" width="16" height="13" viewBox="0 0 16 13"><path fill="#FFF" fill-rule="evenodd" d="M10.883 0c1.271-.021 1.948.442 2.595 1.03.548-.046 1.26-.353 1.681-.566.136-.074.272-.15.409-.223-.241.648-.566 1.156-1.066 1.54-.11.086-.221.2-.36.256v.008c.712-.007 1.3-.33 1.858-.503v.008c-.294.466-.69.939-1.113 1.278l-.513.407c.009.754-.011 1.474-.152 2.107-.819 3.685-2.992 6.186-6.43 7.259-1.235.384-3.23.542-4.645.19a12.063 12.063 0 0 1-1.93-.63 7.727 7.727 0 0 1-.929-.48L0 11.508c.319.009.692.097 1.049.039.323-.052.639-.038.937-.104.743-.163 1.402-.378 1.97-.711.275-.16.693-.35.889-.582a2.792 2.792 0 0 1-.977-.176c-1.062-.375-1.68-1.064-2.082-2.1.322.035 1.248.119 1.465-.063-.405-.023-.794-.257-1.073-.431C1.324 6.844.627 5.947.633 4.568l.336.16c.214.09.433.139.688.19.109.023.325.087.449.04H2.09c-.165-.191-.435-.32-.601-.525C.941 3.75.428 2.703.753 1.453.835 1.139.966.859 1.105.6l.016.008c.064.134.206.23.296.343.28.347.626.659.977.934 1.199.938 2.279 1.514 4.012 1.94a6.2 6.2 0 0 0 1.474.192c-.148-.43-.101-1.125.016-1.541.292-1.046.926-1.8 1.858-2.204.222-.096.469-.167.729-.223l.4-.048" opacity=".6"/></svg>