<svg xmlns="http://www.w3.org/2000/svg" width="16" height="17" viewBox="0 0 16 17">
  <path fill="#FFFFFF" fill-rule="evenodd" d="M13.6387,13.2197 L11.2637,13.2197 L11.2077,8.9997 C11.2077,8.9997 11.2637,7.8747 10.0407,7.8887 C8.8197,7.9027 8.6437,8.9997 8.6437,8.9997 L8.6437,13.2197 L6.2517,13.2197 L6.2517,7.5967 L6.2517,7.1517 L6.2517,6.1167 L8.5447,6.1167 L8.5447,7.0967 C8.5447,7.0967 8.6387,6.7777 9.1667,6.4017 C9.6947,6.0267 10.5697,5.9437 10.9447,5.9577 C11.3207,5.9707 11.8327,5.9057 12.6947,6.4997 C13.6157,7.1327 13.6387,8.7907 13.6387,8.7907 L13.6387,13.2197 Z M3.5527,5.2557 C2.8107,5.2557 2.2087,4.6537 2.2087,3.9117 C2.2087,3.1697 2.8107,2.5677 3.5527,2.5677 C4.2957,2.5677 4.8977,3.1697 4.8977,3.9117 C4.8977,4.6537 4.2957,5.2557 3.5527,5.2557 L3.5527,5.2557 Z M4.7367,13.2197 L2.3687,13.2197 L2.3687,6.1167 L4.7377,6.1167 L4.7377,13.2197 L4.7367,13.2197 Z M14.6667,-0.0003 L1.3337,-0.0003 C0.5967,-0.0003 -0.0003,0.5967 -0.0003,1.3337 L-0.0003,14.6987 C-0.0003,15.4337 0.5967,16.0317 1.3337,16.0317 L14.6667,16.0317 C15.4027,16.0317 15.9997,15.4337 15.9997,14.6987 L15.9997,1.3337 C15.9997,0.5967 15.4027,-0.0003 14.6667,-0.0003 L14.6667,-0.0003 Z" opacity=".6"/>
</svg>
