<svg xmlns="http://www.w3.org/2000/svg" width="16" height="17" viewBox="0 0 16 17">
  <path fill="#FFFFFF" fill-rule="evenodd" d="M666.186,3083.033 C667.287,3084.431 667.971,3086.215 668,3088.179 C667.733,3088.119 665.086,3087.554 662.439,3087.91 C662.379,3087.762 662.32,3087.613 662.26,3087.494 C662.082,3087.078 661.904,3086.691 661.725,3086.304 C664.7,3085.026 666.038,3083.271 666.186,3083.033 M660,3080 C662.023,3080 663.896,3080.773 665.294,3082.081 C665.146,3082.29 663.956,3083.955 661.101,3085.055 C659.792,3082.587 658.335,3080.535 658.127,3080.238 C658.722,3080.089 659.346,3080 660,3080 M656.61,3080.773 C656.818,3081.071 658.246,3083.122 659.584,3085.532 C655.837,3086.542 652.536,3086.542 652.179,3086.542 C652.685,3083.985 654.38,3081.873 656.61,3080.773 M652,3088.238 L652,3088 C652.357,3088 656.224,3088.059 660.208,3086.84 C660.447,3087.316 660.655,3087.762 660.863,3088.238 C660.744,3088.267 660.655,3088.298 660.536,3088.327 C656.402,3089.695 654.231,3093.442 654.023,3093.769 C652.804,3092.282 652,3090.349 652,3088.238 M660,3096.506 C658.157,3096.506 656.461,3095.851 655.093,3094.751 C655.242,3094.453 656.848,3091.212 661.369,3089.605 C661.398,3089.605 661.398,3089.605 661.428,3089.576 C662.558,3092.58 663.004,3095.107 663.123,3095.821 C662.171,3096.267 661.101,3096.506 660,3096.506 M664.461,3095.078 C664.373,3094.572 663.956,3092.163 662.915,3089.189 C665.414,3088.773 667.614,3089.457 667.881,3089.546 C667.554,3091.836 666.276,3093.829 664.461,3095.078" transform="translate(-652 -3080)" opacity=".6"/>
</svg>
