<svg xmlns="http://www.w3.org/2000/svg" width="16" height="12" viewBox="0 0 16 12" xmlns:xlink="http://www.w3.org/1999/xlink">
  <defs>
    <polygon id="a" points="0 11.01 15.939 11.01 15.939 0 0 0"/>
  </defs>
  <g fill="none" fill-rule="evenodd" opacity=".6">
    <mask id="b" fill="white">
      <use xlink:href="#a"/>
    </mask>
    <path fill="#FFFFFF" d="M15.6078273,1.75824176e-05 L0.331281818,1.75824176e-05 C0.149009091,1.75824176e-05 9.09090909e-06,0.148413187 9.09090909e-06,0.331182418 L9.09090909e-06,1.48590769 L7.97064545,4.48142418 L15.9391909,1.48590769 L15.9391909,0.331182418 C15.9392818,0.148413187 15.7913727,1.75824176e-05 15.6078273,1.75824176e-05 L15.6078273,1.75824176e-05 Z M7.97064545,6.01021538 L9.09090909e-06,3.01478681 L9.09090909e-06,10.6786989 C9.09090909e-06,10.8614681 0.149009091,11.0098637 0.331281818,11.0098637 L15.6079182,11.0098637 C15.7913727,11.0098637 15.9392818,10.8614681 15.9392818,10.6786989 L15.9392818,3.01478681 L7.97064545,6.01021538 Z" mask="url(#b)"/>
  </g>
</svg>
